<?xml version="1.0" encoding="utf-8"?>
<!-- Generator: Adobe Illustrator 25.0.0, SVG Export Plug-In . SVG Version: 6.00 Build 0)  -->
<svg version="1.1" id="圖層_1" xmlns="http://www.w3.org/2000/svg" xmlns:xlink="http://www.w3.org/1999/xlink" x="0px" y="0px"
	 viewBox="0 0 369.8 117.7" style="enable-background:new 0 0 369.8 117.7;" xml:space="preserve">
<style type="text/css">
	.st0{fill:#040000;}
</style>
<g>
	<g>
		<path class="st0" d="M17.6,89v-4.5h14.2v22.2h-9V89H17.6z"/>
		<path class="st0" d="M38.3,106.7V89.9h6.2l1.8,1.6l1.7-1.6h12.8l8.5,3.8v13h-8.6V94.9l-2.1-1H47v12.7L38.3,106.7L38.3,106.7z"/>
		<path class="st0" d="M75.1,106.7V91.8l22.3-2.5v-4.8h8.6v22.2h-6.2l-1.8-1.6l-1.7,1.6H75.1z M83.7,102.6h13.6v-9.4l-13.6,1.6
			V102.6z"/>
		<path class="st0" d="M109.1,94v-4.1H122v16.8h-8.6V94L109.1,94L109.1,94z M113.4,87.7v-4.4h8.6v4.4H113.4z"/>
		<path class="st0" d="M125.1,94v-4.1H160v8.4l-21.9,2.9v1.4h13.3v-1.4l8.6-0.8v6.4h-30.6V94.1L125.1,94L125.1,94z M138.1,97.1
			l13.3-1.6v-1.4h-13.3V97.1z"/>
		<path class="st0" d="M178,93.4v-8.9h38.6v8.9l-9-1.1v-3.2h-5.8v17.7h-9V89.1H187v3.2L178,93.4z"/>
		<path class="st0" d="M217.6,94v-4.1h10.5l1.8,1.6l1.7-1.6H249v7l-8.6-0.8V94h-9.8v12.7H222V94H217.6z"/>
		<path class="st0" d="M250.1,94v-4.1H285v8.4l-21.9,2.9v1.4h13.3v-1.4l8.6-0.8v6.4h-30.6V94.1L250.1,94L250.1,94z M263,97.1
			l13.3-1.6v-1.4H263V97.1z"/>
		<path class="st0" d="M291.2,106.7V89.9h6.2l1.8,1.6l1.7-1.6h12.8l8.5,3.8v13h-8.6V94.9l-2.1-1h-11.7v12.7L291.2,106.7L291.2,106.7
			z"/>
		<path class="st0" d="M327.9,106.7V91.8l22.3-2.5v-4.8h8.6v22.2h-6.2l-1.8-1.6l-1.7,1.6H327.9z M336.6,102.6h13.6v-9.4l-13.6,1.6
			V102.6z"/>
	</g>
</g>
<rect x="49.3" y="16.9" class="st0" width="9.2" height="35.8"/>
<rect x="49.5" y="16.7" class="st0" width="36.9" height="6.4"/>
<rect x="49.5" y="29.3" class="st0" width="36.9" height="6.4"/>
<rect x="52.5" y="46.3" class="st0" width="37.6" height="6.3"/>
<polygon class="st0" points="62.2,12.9 72.9,12.9 73.3,52.7 62.2,52.7 "/>
<rect x="77.1" y="16.8" class="st0" width="13.3" height="35.8"/>
<polygon class="st0" points="119.8,10.8 107,10.8 107,29.3 101.9,29.3 101.9,35.7 107,35.7 107,60.5 101.9,60.9 101.9,68.2 
	124.9,66.5 124.9,59.2 119.8,59.6 119.8,35.7 124.9,35.7 124.9,29.3 119.8,29.3 "/>
<polygon class="st0" points="162.5,52.7 175.2,52.7 175.2,26.9 162.5,26.9 162.5,26.9 158.6,26.9 158.6,10.8 145.9,10.8 145.9,26.9 
	142.1,26.9 142.1,10.8 129.3,10.8 129.3,26.9 126.2,26.9 126.2,33.4 129.3,33.4 129.3,55.4 156.4,72.3 173,72.3 142.1,52.7 
	142.1,33.4 145.9,33.4 145.9,52.7 158.6,52.7 158.6,33.4 162.5,33.4 162.5,33.4 "/>
<polygon class="st0" points="89.3,72.3 76.7,72.3 47.1,54.9 59.7,54.9 "/>
<polygon class="st0" points="61.9,72.3 49.5,72.3 71.4,52.7 83.9,52.7 "/>
<polygon class="st0" points="18.3,46.2 5.6,46.2 24.1,25.9 36.8,25.9 "/>
<polygon class="st0" points="321.6,39.3 302.5,39.3 305.3,7.1 324.5,7.1 "/>
<rect x="49.5" y="7.6" class="st0" width="40.8" height="6.4"/>
<rect x="101.9" y="29.3" class="st0" width="22.9" height="6.4"/>
<rect x="20.8" y="19.9" class="st0" width="24.3" height="6.4"/>
<rect x="23.7" y="33.7" class="st0" width="16.9" height="5"/>
<rect x="35.8" y="33.8" class="st0" width="9.2" height="28.2"/>
<polygon class="st0" points="32.9,34.5 22.1,34.5 22.1,65.9 32.9,65.3 "/>
<path class="st0" d="M22.1,59.2c0,0,19.2-0.2,22.9,0v7.3H22.1L22.1,59.2L22.1,59.2z"/>
<polygon class="st0" points="189.2,21.6 186.9,8.9 199.2,8.9 201.5,21.6 "/>
<polygon class="st0" points="190.5,39.4 188.2,26.6 200.5,26.6 202.8,39.4 "/>
<polygon class="st0" points="202.8,43.9 196.9,71.9 185.6,71.9 191.5,43.9 "/>
<polygon class="st0" points="279.5,21.4 276.6,8.1 292.1,8.1 295,21.4 "/>
<polygon class="st0" points="280.8,39.1 277.9,25.9 293.4,25.9 296.3,39.1 "/>
<polygon class="st0" points="296,46.1 290,69.7 275.5,69.7 281.5,46.1 "/>
<polygon class="st0" points="332.8,42.9 332.3,23.2 347.2,23.2 347.7,42.9 "/>
<rect x="208.2" y="16.5" class="st0" width="22.8" height="6.4"/>
<rect x="242.2" y="10.8" class="st0" width="22.8" height="6.4"/>
<rect x="214.1" y="7.6" class="st0" width="12.2" height="19.6"/>
<rect x="208.2" y="59.2" class="st0" width="22.8" height="6.4"/>
<rect x="214.1" y="52.6" class="st0" width="12.2" height="19.8"/>
<rect x="203.2" y="27.2" class="st0" width="12.3" height="28.6"/>
<rect x="226.3" y="27.2" class="st0" width="12.3" height="28.6"/>
<rect x="240.2" y="10.8" class="st0" width="12.7" height="61.5"/>
<rect x="255.1" y="10.8" class="st0" width="12.7" height="61.5"/>
<rect x="206.1" y="27.2" class="st0" width="28.2" height="6.3"/>
<rect x="206.1" y="38.5" class="st0" width="28.2" height="6.3"/>
<rect x="241" y="30.3" class="st0" width="20.5" height="6.3"/>
<rect x="241.6" y="44.7" class="st0" width="20.5" height="6.3"/>
<rect x="205.5" y="49.5" class="st0" width="28.2" height="6.3"/>
<rect x="300" y="15.1" class="st0" width="47" height="6.4"/>
<polygon class="st0" points="337.8,39.3 300,39.3 300.1,33.4 337.9,33.4 "/>
<polygon class="st0" points="327.9,70.9 315.1,70.9 316.5,44.9 329.2,44.9 "/>
<polygon class="st0" points="345,70.9 332.3,70.9 333.6,44.9 346.4,44.9 "/>
<polygon class="st0" points="311.3,70.9 298.5,70.9 299.9,44.9 312.6,44.9 "/>
<polygon class="st0" points="359.1,70.9 336.2,70.9 336.2,63.6 359.1,63.6 "/>
</svg>
