<?xml version="1.0" encoding="utf-8"?>
<!-- Generator: Adobe Illustrator 25.0.0, SVG Export Plug-In . SVG Version: 6.00 Build 0)  -->
<svg version="1.1" id="圖層_1" xmlns="http://www.w3.org/2000/svg" xmlns:xlink="http://www.w3.org/1999/xlink" x="0px" y="0px"
	 viewBox="0 0 389.4 121.8" style="enable-background:new 0 0 389.4 121.8;" xml:space="preserve">
<style type="text/css">
	.st0{fill:#040000;}
</style>
<g>
	<g>
		<path class="st0" d="M27,91.6v-4.5h14.2v22.2h-9V91.6H27z"/>
		<path class="st0" d="M47.7,109.3V92.5h6.2l1.8,1.6l1.7-1.6h12.8l8.5,3.8v13H70V97.6l-2.1-1H56.4v12.7H47.7z"/>
		<path class="st0" d="M84.5,109.3V94.4l22.3-2.5v-4.8h8.6v22.2h-6.2l-1.8-1.6l-1.7,1.6H84.5z M93.1,105.2h13.6v-9.4l-13.6,1.6
			V105.2z"/>
		<path class="st0" d="M118.5,96.6v-4.1h12.9v16.8h-8.6V96.6H118.5z M122.8,90.3v-4.4h8.6v4.4H122.8z"/>
		<path class="st0" d="M134.5,96.6v-4.1h34.9v8.4l-21.9,2.9v1.4h13.3v-1.4l8.6-0.8v6.4h-30.6V96.6H134.5z M147.5,99.7l13.3-1.6v-1.4
			h-13.3V99.7z"/>
		<path class="st0" d="M187.4,96v-8.9H226V96l-9-1.1v-3.2h-5.8v17.7h-9V91.6h-5.8v3.2L187.4,96z"/>
		<path class="st0" d="M227,96.6v-4.1h10.5l1.8,1.6l1.7-1.6h17.4v7l-8.6-0.8v-2.1H240v12.7h-8.6V96.6H227z"/>
		<path class="st0" d="M259.5,96.6v-4.1h34.9v8.4l-21.9,2.9v1.4h13.3v-1.4l8.6-0.8v6.4h-30.6V96.6H259.5z M272.4,99.7l13.3-1.6v-1.4
			h-13.3V99.7z"/>
		<path class="st0" d="M300.6,109.3V92.5h6.2l1.8,1.6l1.7-1.6H323l8.5,3.8v13h-8.6V97.6l-2.1-1h-11.6v12.7H300.6z"/>
		<path class="st0" d="M337.3,109.3V94.4l22.3-2.5v-4.8h8.6v22.2H362l-1.8-1.6l-1.7,1.6H337.3z M346,105.2h13.6v-9.4L346,97.4V105.2
			z"/>
	</g>
</g>
<rect x="58.7" y="19.5" class="st0" width="9.2" height="35.8"/>
<rect x="74.2" y="4.1" transform="matrix(-1.836970e-16 1 -1 -1.836970e-16 99.9052 -54.8257)" class="st0" width="6.4" height="36.9"/>
<rect x="74.2" y="16.7" transform="matrix(-1.836970e-16 1 -1 -1.836970e-16 112.4956 -42.2353)" class="st0" width="6.4" height="36.9"/>
<rect x="77.5" y="33.3" transform="matrix(-1.836970e-16 1 -1 -1.836970e-16 132.7878 -28.5458)" class="st0" width="6.3" height="37.6"/>
<polygon class="st0" points="71.6,15.5 82.3,15.5 82.7,55.3 71.6,55.3 "/>
<rect x="86.4" y="19.4" transform="matrix(-1 -1.224647e-16 1.224647e-16 -1 186.2205 74.6839)" class="st0" width="13.3" height="35.8"/>
<polygon class="st0" points="129.2,13.4 116.4,13.4 116.4,31.9 111.3,31.9 111.3,38.3 116.4,38.3 116.4,63.1 111.3,63.5 111.3,70.8 
	134.3,69.1 134.3,61.8 129.2,62.2 129.2,38.3 134.3,38.3 134.3,31.9 129.2,31.9 "/>
<polygon class="st0" points="171.9,55.3 184.6,55.3 184.6,29.5 171.9,29.5 171.9,29.5 168,29.5 168,13.4 155.3,13.4 155.3,29.5 
	151.5,29.5 151.5,13.4 138.7,13.4 138.7,29.5 135.6,29.5 135.6,36 138.7,36 138.7,58 165.8,74.9 182.4,74.9 151.5,55.3 151.5,36 
	155.3,36 155.3,55.3 168,55.3 168,36 171.9,36 171.9,36 "/>
<polygon class="st0" points="98.7,74.9 86.1,74.9 56.5,57.5 69.1,57.5 "/>
<polygon class="st0" points="71.3,74.9 58.9,74.9 80.8,55.3 93.3,55.3 "/>
<polygon class="st0" points="27.7,48.8 15,48.8 33.5,28.4 46.2,28.4 "/>
<polygon class="st0" points="331,41.9 311.9,41.9 314.7,9.7 333.9,9.7 "/>
<rect x="58.9" y="10.2" class="st0" width="40.8" height="6.4"/>
<rect x="111.3" y="31.9" class="st0" width="22.9" height="6.4"/>
<rect x="30.2" y="22.5" class="st0" width="24.3" height="6.4"/>
<rect x="39.1" y="30.4" transform="matrix(6.123234e-17 -1 1 6.123234e-17 2.7169 80.4543)" class="st0" width="5" height="16.9"/>
<rect x="45.2" y="36.4" class="st0" width="9.2" height="28.2"/>
<polygon class="st0" points="42.3,37.1 31.5,37.1 31.5,68.5 42.3,67.9 "/>
<path class="st0" d="M31.5,61.7c0,0,19.2-0.2,22.9,0v7.3l-22.9,0V61.7z"/>
<polygon class="st0" points="198.6,24.2 196.3,11.5 208.6,11.5 210.9,24.2 "/>
<polygon class="st0" points="199.9,42 197.6,29.2 209.9,29.2 212.2,42 "/>
<polygon class="st0" points="212.2,46.5 206.3,74.5 195,74.5 200.9,46.5 "/>
<polygon class="st0" points="288.9,24 286,10.7 301.5,10.7 304.4,24 "/>
<polygon class="st0" points="290.2,41.7 287.3,28.5 302.8,28.5 305.7,41.7 "/>
<polygon class="st0" points="305.4,48.7 299.4,72.3 284.9,72.3 290.9,48.7 "/>
<polygon class="st0" points="342.2,45.5 341.7,25.8 356.6,25.8 357.1,45.5 "/>
<rect x="217.6" y="19.1" class="st0" width="22.8" height="6.4"/>
<rect x="251.6" y="13.4" class="st0" width="22.8" height="6.4"/>
<rect x="223.5" y="10.2" class="st0" width="12.2" height="19.6"/>
<rect x="217.6" y="61.8" class="st0" width="22.8" height="6.4"/>
<rect x="223.5" y="55.2" class="st0" width="12.2" height="19.8"/>
<rect x="212.6" y="29.8" class="st0" width="12.3" height="28.6"/>
<rect x="235.7" y="29.8" class="st0" width="12.3" height="28.6"/>
<rect x="249.6" y="13.4" class="st0" width="12.7" height="61.5"/>
<rect x="264.5" y="13.4" class="st0" width="12.7" height="61.5"/>
<rect x="215.5" y="29.8" class="st0" width="28.2" height="6.3"/>
<rect x="215.5" y="41" class="st0" width="28.2" height="6.3"/>
<rect x="250.4" y="32.9" class="st0" width="20.5" height="6.3"/>
<rect x="251" y="47.3" class="st0" width="20.5" height="6.3"/>
<rect x="214.9" y="52.1" class="st0" width="28.2" height="6.3"/>
<rect x="309.4" y="17.7" class="st0" width="47" height="6.4"/>
<polygon class="st0" points="347.2,41.9 309.4,41.9 309.5,36 347.3,36 "/>
<polygon class="st0" points="337.3,73.5 324.5,73.5 325.9,47.5 338.6,47.5 "/>
<polygon class="st0" points="354.4,73.5 341.7,73.5 343,47.5 355.8,47.5 "/>
<polygon class="st0" points="320.7,73.5 307.9,73.5 309.3,47.5 322,47.5 "/>
<polygon class="st0" points="368.5,73.5 345.6,73.5 345.6,66.2 368.5,66.2 "/>
</svg>
